<?xml version="1.0" standalone="no"?>
<!DOCTYPE svg PUBLIC "-//W3C//DTD SVG 20010904//EN"
 "http://www.w3.org/TR/2001/REC-SVG-20010904/DTD/svg10.dtd">
<svg version="1.0" xmlns="http://www.w3.org/2000/svg"
 width="512.000000pt" height="493.000000pt" viewBox="0 0 512.000000 493.000000"
 preserveAspectRatio="xMidYMid meet">

<g transform="translate(0.000000,493.000000) scale(0.100000,-0.100000)"
fill="#000000" stroke="none">
<path d="M0 2465 l0 -2465 2560 0 2560 0 0 2465 0 2465 -2560 0 -2560 0 0
-2465z m2689 1014 c144 -37 306 -146 394 -267 95 -129 140 -267 141 -427 0
-133 -17 -205 -79 -331 -49 -101 -144 -212 -227 -268 -36 -25 -56 -48 -78 -94
-20 -39 -54 -82 -97 -122 -101 -95 -112 -100 -226 -100 -60 0 -110 5 -130 14
-50 21 -163 131 -198 192 -22 39 -47 66 -83 89 -113 73 -194 163 -256 285 -43
84 -58 138 -70 243 -27 232 45 435 214 602 186 185 433 250 695 184z m1149
-2349 c4 0 16 7 26 15 28 21 78 19 103 -5 21 -19 26 -44 36 -177 l4 -53 -31 0
-31 0 3 87 c4 100 -7 126 -52 126 -46 0 -61 -25 -61 -101 0 -37 4 -77 8 -89 8
-21 5 -23 -25 -23 l-33 0 3 225 c3 204 1 226 -14 232 -13 5 -10 10 17 24 l34
17 3 -139 c1 -76 6 -139 10 -139z m-2018 135 c0 -74 3 -135 8 -135 4 0 16 7
26 15 28 21 69 19 100 -6 24 -19 26 -26 26 -99 0 -43 4 -90 10 -104 9 -25 8
-26 -31 -26 -37 0 -39 2 -29 20 6 11 10 52 8 92 -3 64 -6 73 -30 91 l-28 21
-27 -21 c-25 -18 -28 -27 -31 -91 -2 -40 2 -81 8 -92 10 -19 8 -20 -30 -20
-37 0 -40 2 -30 19 6 12 10 101 10 220 0 159 -3 203 -14 213 -12 11 -11 15 8
25 44 25 46 21 46 -122z m1700 0 c0 -74 3 -135 8 -135 4 0 16 7 26 15 33 25
84 19 116 -14 50 -50 52 -124 4 -180 -31 -37 -78 -51 -135 -41 -24 5 -47 6
-51 4 -4 -3 -8 98 -10 222 -2 184 -6 228 -17 232 -10 3 -7 9 10 18 48 26 49
23 49 -121z m-2565 81 c65 -31 99 -69 121 -135 34 -104 -14 -221 -111 -270
-43 -22 -65 -26 -162 -30 l-113 -3 10 27 c13 35 13 390 0 416 -10 18 -6 19 97
19 93 0 115 -4 158 -24z m1921 -8 c20 -19 28 -40 32 -76 9 -94 -49 -148 -155
-146 l-53 2 0 -79 c0 -43 4 -89 10 -103 9 -25 8 -26 -28 -26 l-37 0 0 231 0
231 102 -4 c96 -3 104 -5 129 -30z m-1432 -50 c7 -12 6 -21 -3 -32 -18 -22
-38 -20 -51 3 -7 15 -6 24 6 36 19 18 33 16 48 -7z m900 -1 c8 -12 7 -21 -5
-32 -21 -21 -49 -9 -49 20 0 36 34 44 54 12z m-205 -84 c-6 -35 2 -43 41 -43
29 0 40 -4 40 -15 0 -11 -11 -15 -39 -15 l-39 0 -4 -70 c-5 -102 0 -115 45
-115 40 0 45 -6 22 -25 -24 -20 -77 -14 -97 11 -14 17 -18 40 -18 109 0 70 -3
89 -15 92 -11 2 -6 13 18 40 30 36 49 48 46 31z m-888 -68 c40 33 69 33 69 0
0 -22 -4 -24 -23 -20 -43 11 -68 -22 -74 -96 -3 -41 -1 -74 6 -87 11 -21 10
-22 -28 -22 -40 0 -40 0 -30 30 11 31 8 154 -4 180 -6 12 0 19 20 26 25 9 28
7 31 -13 l3 -24 30 26z m189 -84 c0 -60 3 -116 6 -125 5 -13 -1 -16 -27 -16
l-34 0 0 115 c0 104 2 115 20 124 11 5 23 10 28 10 4 1 7 -48 7 -108z m224
103 c9 -3 16 -18 16 -32 0 -24 -1 -24 -19 -8 -25 23 -70 25 -84 5 -16 -26 -2
-46 52 -74 58 -29 75 -53 62 -87 -17 -46 -64 -64 -124 -47 -32 9 -37 14 -37
39 l0 29 25 -24 c27 -28 76 -33 94 -11 16 19 5 41 -27 57 -93 46 -114 88 -67
134 24 25 73 33 109 19z m688 -231 c8 -10 2 -13 -31 -13 -40 0 -42 1 -34 23
10 28 10 167 0 188 -6 13 -2 19 20 26 l28 10 3 -111 c1 -60 8 -116 14 -123z
m710 212 c37 32 72 30 76 -4 3 -21 1 -23 -22 -17 -15 4 -35 2 -45 -4 -36 -19
-53 -117 -31 -174 9 -25 8 -26 -32 -26 -33 0 -39 3 -30 12 15 15 17 184 2 193
-17 10 -11 21 18 31 24 9 27 7 30 -13 l3 -24 31 26z m278 5 c23 -17 25 -27 29
-106 3 -75 6 -87 22 -91 11 -3 18 -11 16 -17 -5 -14 -57 -20 -69 -8 -7 7 -21
5 -42 -3 -58 -25 -106 -1 -106 51 0 40 32 65 94 74 37 5 41 8 38 30 -5 32 -30
60 -54 60 -10 0 -30 -11 -43 -25 l-25 -24 0 24 c0 49 92 72 140 35z m881 10
c32 -18 49 -64 49 -134 0 -57 3 -67 22 -77 20 -11 20 -13 4 -24 -20 -15 -55
-8 -63 12 -5 12 -8 12 -22 0 -55 -49 -144 -9 -127 58 7 27 61 55 105 55 27 0
31 4 31 27 0 32 -26 63 -52 63 -28 0 -58 -18 -58 -36 0 -8 -4 -13 -9 -10 -14
9 -1 45 22 61 25 17 70 19 98 5z"/>
<path d="M2370 3224 c-147 -28 -239 -89 -287 -192 -48 -102 -54 -271 -13 -384
l19 -53 0 68 c1 73 13 110 55 171 19 29 26 51 26 88 0 47 1 50 38 65 54 23
212 20 341 -7 202 -41 259 -71 322 -169 25 -39 29 -55 30 -120 1 -72 1 -74 14
-46 20 45 27 161 16 242 -14 97 -46 178 -89 225 -91 101 -284 146 -472 112z"/>
<path d="M2219 2969 c-23 -9 -27 -17 -32 -68 -4 -44 -13 -69 -38 -105 -33 -47
-34 -50 -34 -152 1 -57 -1 -104 -2 -104 -2 0 -15 12 -28 28 -32 37 -50 21 -36
-34 36 -140 72 -228 97 -238 9 -3 14 -20 14 -47 0 -58 18 -115 55 -174 35 -56
145 -162 182 -176 13 -5 68 -9 122 -9 110 0 118 4 222 105 75 74 109 144 109
228 0 58 3 66 25 81 34 22 51 58 69 148 22 106 21 148 -2 148 -11 0 -27 -9
-37 -20 -10 -11 -21 -18 -24 -15 -3 3 -4 44 -2 90 2 70 -1 93 -18 128 -46 96
-115 133 -321 177 -102 21 -274 26 -321 9z m374 -227 c45 -26 56 -48 32 -67
-67 -52 -143 -62 -211 -27 -60 31 -68 44 -41 70 54 51 155 62 220 24z m-268
-287 c17 0 45 3 63 7 47 11 40 -9 -9 -22 -47 -13 -109 -5 -136 16 -16 14 -15
14 17 7 19 -4 49 -7 65 -8z m340 1 c17 0 48 3 70 8 36 7 38 6 22 -8 -11 -8
-36 -17 -57 -21 -41 -7 -120 10 -120 26 0 5 11 6 28 2 15 -4 41 -8 57 -7z"/>
<path d="M2408 2722 c-36 -22 -35 -28 5 -52 42 -26 49 -25 35 6 -9 20 -9 30 0
45 15 24 -1 25 -40 1z"/>
<path d="M2546 2710 c4 -18 1 -36 -6 -45 -10 -12 -10 -15 0 -15 13 0 80 38 80
46 0 6 -63 44 -72 44 -4 0 -5 -13 -2 -30z"/>
<path d="M2477 2724 c-13 -13 -7 -52 9 -58 22 -9 46 13 42 38 -3 21 -37 34
-51 20z"/>
<path d="M3540 1110 c-16 -16 -20 -33 -20 -84 0 -73 14 -96 60 -96 56 0 93 65
76 135 -15 60 -77 84 -116 45z"/>
<path d="M760 1146 l0 -206 68 0 c80 0 123 19 166 73 53 67 48 198 -11 268
-36 42 -69 56 -151 64 l-72 8 0 -207z"/>
<path d="M2704 1337 c-3 -8 -4 -54 -2 -103 l3 -89 48 -3 c41 -3 51 1 77 27 55
54 33 151 -38 170 -50 15 -82 14 -88 -2z"/>
<path d="M3264 1010 c-47 -19 -28 -89 20 -74 30 9 35 15 42 52 6 29 4 32 -17
31 -13 0 -34 -4 -45 -9z"/>
<path d="M4149 999 c-23 -23 -22 -47 2 -62 27 -17 69 16 69 53 0 25 -4 30 -25
30 -14 0 -34 -9 -46 -21z"/>
</g>
</svg>
